solid Visualization Toolkit generated SLA File
 facet normal 0.96592579354047814 0.25881916636388946 -2.2268785005876357e-05
  outer loop
   vertex 1.2874892950057983 0.34404310584068298 0.49899998307228088
   vertex 1.2872304916381836 0.34500905871391296 0.5
   vertex 1.4163812398910522 -0.13698793947696686 0.49899998307228088
  endloop
 endfacet
 facet normal 0.96592581079098028 0.2588191027237518 1.0632928603343065e-05
  outer loop
   vertex 1.4163812398910522 -0.13698793947696686 0.49899998307228088
   vertex 1.2872304916381836 0.34500905871391296 0.5
   vertex 1.416640043258667 -0.13795384764671326 0.5
  endloop
 endfacet
 facet normal 0.96592856290070617 0.25880883171286256 0
  outer loop
   vertex 1.4163812398910522 -0.13698793947696686 0.49899998307228088
   vertex 1.416640043258667 -0.13795384764671326 0.5
   vertex 1.4163812398910522 -0.13698793947696686 0.00099998712539672852
  endloop
 endfacet
 facet normal 0.96592856290070606 0.25880883171286256 0
  outer loop
   vertex 1.4163812398910522 -0.13698793947696686 0.00099998712539672852
   vertex 1.416640043258667 -0.13795384764671326 0.5
   vertex 1.416640043258667 -0.13795384764671326 0
  endloop
 endfacet
 facet normal 0.96592579372469289 0.25881916641324965 -1.0699181361233029e-05
  outer loop
   vertex 1.4163812398910522 -0.13698793947696686 0.00099998712539672852
   vertex 1.416640043258667 -0.13795384764671326 0
   vertex 1.2874892950057983 0.34404310584068298 0.00099998712539672852
  endloop
 endfacet
 facet normal 0.96592581060748506 0.25881910267458441 2.2203509960936842e-05
  outer loop
   vertex 1.2874892950057983 0.34404310584068298 0.00099998712539672852
   vertex 1.416640043258667 -0.13795384764671326 0
   vertex 1.2872304916381836 0.34500905871391296 0
  endloop
 endfacet
 facet normal 0.96593155709922907 0.25879765648061537 0
  outer loop
   vertex 1.2874892950057983 0.34404310584068298 0.00099998712539672852
   vertex 1.2872304916381836 0.34500905871391296 0
   vertex 1.2874892950057983 0.34404310584068298 0.49899998307228088
  endloop
 endfacet
 facet normal 0.96593155709922918 0.25879765648061542 -0
  outer loop
   vertex 1.2874892950057983 0.34404310584068298 0.49899998307228088
   vertex 1.2872304916381836 0.34500905871391296 0
   vertex 1.2872304916381836 0.34500905871391296 0.5
  endloop
 endfacet
 facet normal -0.96592410691179964 -0.25882546182059052 0
  outer loop
   vertex 0.32156357169151306 0.085224077105522156 0.49899998307228088
   vertex 0.32130473852157593 0.086190029978752136 0.5
   vertex 0.32156357169151306 0.085224077105522156 0.00099998712539672852
  endloop
 endfacet
 facet normal -0.96592410691179975 -0.25882546182059052 -0
  outer loop
   vertex 0.32156357169151306 0.085224077105522156 0.00099998712539672852
   vertex 0.32130473852157593 0.086190029978752136 0.5
   vertex 0.32130473852157593 0.086190029978752136 0
  endloop
 endfacet
 facet normal -0.96592582368074564 -0.25881905475190842 6.6333685527959977e-06
  outer loop
   vertex 0.32156357169151306 0.085224077105522156 0.00099998712539672852
   vertex 0.32130473852157593 0.086190029978752136 0
   vertex 0.45045545697212219 -0.39580696821212769 0.00099998712539672852
  endloop
 endfacet
 facet normal -0.96592582764263235 -0.25881903964898562 1.442471284057546e-05
  outer loop
   vertex 0.45045545697212219 -0.39580696821212769 0.00099998712539672852
   vertex 0.32130473852157593 0.086190029978752136 0
   vertex 0.45071426033973694 -0.39677289128303528 0
  endloop
 endfacet
 facet normal -0.96592956100997762 -0.25880510653206151 0
  outer loop
   vertex 0.45045545697212219 -0.39580696821212769 0.00099998712539672852
   vertex 0.45071426033973694 -0.39677289128303528 0
   vertex 0.45045545697212219 -0.39580696821212769 0.49899998307228088
  endloop
 endfacet
 facet normal -0.96592956100997773 -0.25880510653206157 0
  outer loop
   vertex 0.45045545697212219 -0.39580696821212769 0.49899998307228088
   vertex 0.45071426033973694 -0.39677289128303528 0
   vertex 0.45071426033973694 -0.39677289128303528 0.5
  endloop
 endfacet
 facet normal -0.96592582360129398 -0.25881905473061939 -1.4439896303634794e-05
  outer loop
   vertex 0.45045545697212219 -0.39580696821212769 0.49899998307228088
   vertex 0.45071426033973694 -0.39677289128303528 0.5
   vertex 0.32156357169151306 0.085224077105522156 0.49899998307228088
  endloop
 endfacet
 facet normal -0.96592582772177349 -0.25881903967019138 -6.6487847819775602e-06
  outer loop
   vertex 0.32156357169151306 0.085224077105522156 0.49899998307228088
   vertex 0.45071426033973694 -0.39677289128303528 0.5
   vertex 0.32130473852157593 0.086190029978752136 0.5
  endloop
 endfacet
 facet normal 0 0 -1
  outer loop
   vertex 1.2872304916381836 0.34500905871391296 0
   vertex 1.416640043258667 -0.13795384764671326 0
   vertex 0.32130473852157593 0.086190029978752136 0
  endloop
 endfacet
 facet normal -0 0 -1
  outer loop
   vertex 0.32130473852157593 0.086190029978752136 0
   vertex 1.416640043258667 -0.13795384764671326 0
   vertex 0.45071426033973694 -0.39677289128303528 0
  endloop
 endfacet
 facet normal -0.25881904812468143 0.96592582547928274 0
  outer loop
   vertex 1.2872304916381836 0.34500905871391296 0.5
   vertex 1.2872304916381836 0.34500905871391296 0
   vertex 0.32130473852157593 0.086190029978752136 0.5
  endloop
 endfacet
 facet normal -0.25881904812468143 0.96592582547928274 0
  outer loop
   vertex 0.32130473852157593 0.086190029978752136 0.5
   vertex 1.2872304916381836 0.34500905871391296 0
   vertex 0.32130473852157593 0.086190029978752136 0
  endloop
 endfacet
 facet normal 0 0 1
  outer loop
   vertex 1.416640043258667 -0.13795384764671326 0.5
   vertex 1.2872304916381836 0.34500905871391296 0.5
   vertex 0.45071426033973694 -0.39677289128303528 0.5
  endloop
 endfacet
 facet normal 0 0 1
  outer loop
   vertex 0.45071426033973694 -0.39677289128303528 0.5
   vertex 1.2872304916381836 0.34500905871391296 0.5
   vertex 0.32130473852157593 0.086190029978752136 0.5
  endloop
 endfacet
 facet normal 0.25881905457707366 -0.96592582375036939 0
  outer loop
   vertex 1.416640043258667 -0.13795384764671326 0
   vertex 1.416640043258667 -0.13795384764671326 0.5
   vertex 0.45071426033973694 -0.39677289128303528 0
  endloop
 endfacet
 facet normal 0.25881905457707366 -0.96592582375036939 0
  outer loop
   vertex 0.45071426033973694 -0.39677289128303528 0
   vertex 1.416640043258667 -0.13795384764671326 0.5
   vertex 0.45071426033973694 -0.39677289128303528 0.5
  endloop
 endfacet
 facet normal 0 0 1
  outer loop
   vertex 1.4163812398910522 -0.13698793947696686 0.00099998712539672852
   vertex 1.2874892950057983 0.34404310584068298 0.00099998712539672852
   vertex 0.45045545697212219 -0.39580696821212769 0.00099998712539672852
  endloop
 endfacet
 facet normal 0 0 1
  outer loop
   vertex 0.45045545697212219 -0.39580696821212769 0.00099998712539672852
   vertex 1.2874892950057983 0.34404310584068298 0.00099998712539672852
   vertex 0.32156357169151306 0.085224077105522156 0.00099998712539672852
  endloop
 endfacet
 facet normal 0.25881905557526286 -0.96592582348290545 0
  outer loop
   vertex 1.2874892950057983 0.34404310584068298 0.00099998712539672852
   vertex 1.2874892950057983 0.34404310584068298 0.49899998307228088
   vertex 0.32156357169151306 0.085224077105522156 0.00099998712539672852
  endloop
 endfacet
 facet normal 0.25881905557526286 -0.96592582348290545 0
  outer loop
   vertex 0.32156357169151306 0.085224077105522156 0.00099998712539672852
   vertex 1.2874892950057983 0.34404310584068298 0.49899998307228088
   vertex 0.32156357169151306 0.085224077105522156 0.49899998307228088
  endloop
 endfacet
 facet normal 0 0 -1
  outer loop
   vertex 1.2874892950057983 0.34404310584068298 0.49899998307228088
   vertex 1.4163812398910522 -0.13698793947696686 0.49899998307228088
   vertex 0.32156357169151306 0.085224077105522156 0.49899998307228088
  endloop
 endfacet
 facet normal -0 0 -1
  outer loop
   vertex 0.32156357169151306 0.085224077105522156 0.49899998307228088
   vertex 1.4163812398910522 -0.13698793947696686 0.49899998307228088
   vertex 0.45045545697212219 -0.39580696821212769 0.49899998307228088
  endloop
 endfacet
 facet normal -0.25881904067410039 0.96592582747565991 0
  outer loop
   vertex 1.4163812398910522 -0.13698793947696686 0.49899998307228088
   vertex 1.4163812398910522 -0.13698793947696686 0.00099998712539672852
   vertex 0.45045545697212219 -0.39580696821212769 0.49899998307228088
  endloop
 endfacet
 facet normal -0.25881904067410039 0.96592582747565991 0
  outer loop
   vertex 0.45045545697212219 -0.39580696821212769 0.49899998307228088
   vertex 1.4163812398910522 -0.13698793947696686 0.00099998712539672852
   vertex 0.45045545697212219 -0.39580696821212769 0.00099998712539672852
  endloop
 endfacet
endsolid
