solid Visualization Toolkit generated SLA File
 facet normal 0.25881904017500629 -0.96592582760939183 0
  outer loop
   vertex 3.3484869003295898 0.37968295812606812 0
   vertex 3.3484869003295898 0.37968295812606812 0.5
   vertex 1.416635274887085 -0.13795511424541473 0
  endloop
 endfacet
 facet normal 0.25881904017500629 -0.96592582760939183 0
  outer loop
   vertex 1.416635274887085 -0.13795511424541473 0
   vertex 3.3484869003295898 0.37968295812606812 0.5
   vertex 1.416635274887085 -0.13795511424541473 0.5
  endloop
 endfacet
 facet normal -0 0 -1
  outer loop
   vertex 3.3482282161712646 0.38064888119697571 0
   vertex 3.3484869003295898 0.37968295812606812 0
   vertex 1.4163764715194702 -0.13698920607566833 0
  endloop
 endfacet
 facet normal 0 0 -1
  outer loop
   vertex 1.4163764715194702 -0.13698920607566833 0
   vertex 3.3484869003295898 0.37968295812606812 0
   vertex 1.416635274887085 -0.13795511424541473 0
  endloop
 endfacet
 facet normal -0.25881903222533198 0.96592582973950047 0
  outer loop
   vertex 3.3482282161712646 0.38064888119697571 0.5
   vertex 3.3482282161712646 0.38064888119697571 0
   vertex 1.4163764715194702 -0.13698920607566833 0.5
  endloop
 endfacet
 facet normal -0.25881903222533198 0.96592582973950047 0
  outer loop
   vertex 1.4163764715194702 -0.13698920607566833 0.5
   vertex 3.3482282161712646 0.38064888119697571 0
   vertex 1.4163764715194702 -0.13698920607566833 0
  endloop
 endfacet
 facet normal 0 0 1
  outer loop
   vertex 3.3484869003295898 0.37968295812606812 0.5
   vertex 3.3482282161712646 0.38064888119697571 0.5
   vertex 1.416635274887085 -0.13795511424541473 0.5
  endloop
 endfacet
 facet normal 0 0 1
  outer loop
   vertex 1.416635274887085 -0.13795511424541473 0.5
   vertex 3.3482282161712646 0.38064888119697571 0.5
   vertex 1.4163764715194702 -0.13698920607566833 0.5
  endloop
 endfacet
 facet normal 0.96595935655797505 0.25869387599652044 0
  outer loop
   vertex 3.3482282161712646 0.38064888119697571 0
   vertex 3.3482282161712646 0.38064888119697571 0.5
   vertex 3.3484869003295898 0.37968295812606812 0
  endloop
 endfacet
 facet normal 0.96595935655797505 0.25869387599652044 0
  outer loop
   vertex 3.3484869003295898 0.37968295812606812 0
   vertex 3.3482282161712646 0.38064888119697571 0.5
   vertex 3.3484869003295898 0.37968295812606812 0.5
  endloop
 endfacet
 facet normal -0.96592856290070606 -0.25880883171286256 0
  outer loop
   vertex 1.4163764715194702 -0.13698920607566833 0.5
   vertex 1.4163764715194702 -0.13698920607566833 0
   vertex 1.416635274887085 -0.13795511424541473 0.5
  endloop
 endfacet
 facet normal -0.96592856290070606 -0.25880883171286256 0
  outer loop
   vertex 1.416635274887085 -0.13795511424541473 0.5
   vertex 1.4163764715194702 -0.13698920607566833 0
   vertex 1.416635274887085 -0.13795511424541473 0
  endloop
 endfacet
 facet normal 0.25881904812468143 -0.96592582547928274 0
  outer loop
   vertex 3.2190773487091064 0.86264586448669434 0
   vertex 3.2190773487091064 0.86264586448669434 0.5
   vertex 1.2872258424758911 0.34500780701637268 0
  endloop
 endfacet
 facet normal 0.25881904812468143 -0.96592582547928274 0
  outer loop
   vertex 1.2872258424758911 0.34500780701637268 0
   vertex 3.2190773487091064 0.86264586448669434 0.5
   vertex 1.2872258424758911 0.34500780701637268 0.5
  endloop
 endfacet
 facet normal -0 0 -1
  outer loop
   vertex 3.2188186645507812 0.86361181735992432 0
   vertex 3.2190773487091064 0.86264586448669434 0
   vertex 1.2869669198989868 0.34597370028495789 0
  endloop
 endfacet
 facet normal 0 0 -1
  outer loop
   vertex 1.2869669198989868 0.34597370028495789 0
   vertex 3.2190773487091064 0.86264586448669434 0
   vertex 1.2872258424758911 0.34500780701637268 0
  endloop
 endfacet
 facet normal -0.25881904612830414 0.96592582601421051 0
  outer loop
   vertex 3.2188186645507812 0.86361181735992432 0.5
   vertex 3.2188186645507812 0.86361181735992432 0
   vertex 1.2869669198989868 0.34597370028495789 0.5
  endloop
 endfacet
 facet normal -0.25881904612830414 0.96592582601421051 0
  outer loop
   vertex 1.2869669198989868 0.34597370028495789 0.5
   vertex 3.2188186645507812 0.86361181735992432 0
   vertex 1.2869669198989868 0.34597370028495789 0
  endloop
 endfacet
 facet normal 0 0 1
  outer loop
   vertex 3.2190773487091064 0.86264586448669434 0.5
   vertex 3.2188186645507812 0.86361181735992432 0.5
   vertex 1.2872258424758911 0.34500780701637268 0.5
  endloop
 endfacet
 facet normal 0 0 1
  outer loop
   vertex 1.2872258424758911 0.34500780701637268 0.5
   vertex 3.2188186645507812 0.86361181735992432 0.5
   vertex 1.2869669198989868 0.34597370028495789 0.5
  endloop
 endfacet
 facet normal 0.96596135099333102 0.25868642868758834 0
  outer loop
   vertex 3.2188186645507812 0.86361181735992432 0
   vertex 3.2188186645507812 0.86361181735992432 0.5
   vertex 3.2190773487091064 0.86264586448669434 0
  endloop
 endfacet
 facet normal 0.96596135099333102 0.25868642868758834 0
  outer loop
   vertex 3.2190773487091064 0.86264586448669434 0
   vertex 3.2188186645507812 0.86361181735992432 0.5
   vertex 3.2190773487091064 0.86264586448669434 0.5
  endloop
 endfacet
 facet normal -0.96589775657727039 -0.25892377997973853 0
  outer loop
   vertex 1.2869669198989868 0.34597370028495789 0.5
   vertex 1.2869669198989868 0.34597370028495789 0
   vertex 1.2872258424758911 0.34500780701637268 0.5
  endloop
 endfacet
 facet normal -0.96589775657727039 -0.25892377997973853 0
  outer loop
   vertex 1.2872258424758911 0.34500780701637268 0.5
   vertex 1.2869669198989868 0.34597370028495789 0
   vertex 1.2872258424758911 0.34500780701637268 0
  endloop
 endfacet
endsolid
