solid Visualization Toolkit generated SLA File
 facet normal 0.25881904340120243 -0.96592582674493532 0
  outer loop
   vertex 0.45070949196815491 -0.39677417278289795 0
   vertex 0.45070949196815491 -0.39677417278289795 0.5
   vertex -1.4811421632766724 -0.91441226005554199 0
  endloop
 endfacet
 facet normal 0.25881904340120243 -0.96592582674493532 0
  outer loop
   vertex -1.4811421632766724 -0.91441226005554199 0
   vertex 0.45070949196815491 -0.39677417278289795 0.5
   vertex -1.4811421632766724 -0.91441226005554199 0.5
  endloop
 endfacet
 facet normal -0 0 -1
  outer loop
   vertex 0.45045065879821777 -0.39580824971199036 0
   vertex 0.45070949196815491 -0.39677417278289795 0
   vertex -1.4814009666442871 -0.91344636678695679 0
  endloop
 endfacet
 facet normal 0 0 -1
  outer loop
   vertex -1.4814009666442871 -0.91344636678695679 0
   vertex 0.45070949196815491 -0.39677417278289795 0
   vertex -1.4811421632766724 -0.91441226005554199 0
  endloop
 endfacet
 facet normal -0.25881906102946545 0.96592582202145616 0
  outer loop
   vertex 0.45045065879821777 -0.39580824971199036 0.5
   vertex 0.45045065879821777 -0.39580824971199036 0
   vertex -1.4814009666442871 -0.91344636678695679 0.5
  endloop
 endfacet
 facet normal -0.25881906102946545 0.96592582202145616 0
  outer loop
   vertex -1.4814009666442871 -0.91344636678695679 0.5
   vertex 0.45045065879821777 -0.39580824971199036 0
   vertex -1.4814009666442871 -0.91344636678695679 0
  endloop
 endfacet
 facet normal 0 0 1
  outer loop
   vertex 0.45070949196815491 -0.39677417278289795 0.5
   vertex 0.45045065879821777 -0.39580824971199036 0.5
   vertex -1.4811421632766724 -0.91441226005554199 0.5
  endloop
 endfacet
 facet normal 0 0 1
  outer loop
   vertex -1.4811421632766724 -0.91441226005554199 0.5
   vertex 0.45045065879821777 -0.39580824971199036 0.5
   vertex -1.4814009666442871 -0.91344636678695679 0.5
  endloop
 endfacet
 facet normal 0.96592211040900422 0.25883291255753299 0
  outer loop
   vertex 0.45045065879821777 -0.39580824971199036 0
   vertex 0.45045065879821777 -0.39580824971199036 0.5
   vertex 0.45070949196815491 -0.39677417278289795 0
  endloop
 endfacet
 facet normal 0.96592211040900422 0.25883291255753299 0
  outer loop
   vertex 0.45070949196815491 -0.39677417278289795 0
   vertex 0.45045065879821777 -0.39580824971199036 0.5
   vertex 0.45070949196815491 -0.39677417278289795 0.5
  endloop
 endfacet
 facet normal -0.96592756474833386 -0.25881255699705435 0
  outer loop
   vertex -1.4814009666442871 -0.91344636678695679 0.5
   vertex -1.4814009666442871 -0.91344636678695679 0
   vertex -1.4811421632766724 -0.91441226005554199 0.5
  endloop
 endfacet
 facet normal -0.96592756474833386 -0.25881255699705435 0
  outer loop
   vertex -1.4811421632766724 -0.91441226005554199 0.5
   vertex -1.4814009666442871 -0.91344636678695679 0
   vertex -1.4811421632766724 -0.91441226005554199 0
  endloop
 endfacet
 facet normal 0.25881904662739841 -0.96592582588047871 0
  outer loop
   vertex 0.3212999701499939 0.086188748478889465 0
   vertex 0.3212999701499939 0.086188748478889465 0.5
   vertex -1.6105517148971558 -0.43144935369491577 0
  endloop
 endfacet
 facet normal 0.25881904662739841 -0.96592582588047871 0
  outer loop
   vertex -1.6105517148971558 -0.43144935369491577 0
   vertex 0.3212999701499939 0.086188748478889465 0.5
   vertex -1.6105517148971558 -0.43144935369491577 0.5
  endloop
 endfacet
 facet normal -0 0 -1
  outer loop
   vertex 0.32104113698005676 0.087154664099216461 0
   vertex 0.3212999701499939 0.086188748478889465 0
   vertex -1.6108105182647705 -0.43048343062400818 0
  endloop
 endfacet
 facet normal 0 0 -1
  outer loop
   vertex -1.6108105182647705 -0.43048343062400818 0
   vertex 0.3212999701499939 0.086188748478889465 0
   vertex -1.6105517148971558 -0.43144935369491577 0
  endloop
 endfacet
 facet normal -0.25881904687694557 0.96592582581361275 0
  outer loop
   vertex 0.32104113698005676 0.087154664099216461 0.5
   vertex 0.32104113698005676 0.087154664099216461 0
   vertex -1.6108105182647705 -0.43048343062400818 0.5
  endloop
 endfacet
 facet normal -0.25881904687694557 0.96592582581361275 0
  outer loop
   vertex -1.6108105182647705 -0.43048343062400818 0.5
   vertex 0.32104113698005676 0.087154664099216461 0
   vertex -1.6108105182647705 -0.43048343062400818 0
  endloop
 endfacet
 facet normal 0 0 1
  outer loop
   vertex 0.3212999701499939 0.086188748478889465 0.5
   vertex 0.32104113698005676 0.087154664099216461 0.5
   vertex -1.6105517148971558 -0.43144935369491577 0.5
  endloop
 endfacet
 facet normal 0 0 1
  outer loop
   vertex -1.6105517148971558 -0.43144935369491577 0.5
   vertex 0.32104113698005676 0.087154664099216461 0.5
   vertex -1.6108105182647705 -0.43048343062400818 0.5
  endloop
 endfacet
 facet normal 0.96592161125636455 0.25883477530638832 0
  outer loop
   vertex 0.32104113698005676 0.087154664099216461 0
   vertex 0.32104113698005676 0.087154664099216461 0.5
   vertex 0.3212999701499939 0.086188748478889465 0
  endloop
 endfacet
 facet normal 0.96592161125636455 0.25883477530638832 0
  outer loop
   vertex 0.3212999701499939 0.086188748478889465 0
   vertex 0.32104113698005676 0.087154664099216461 0.5
   vertex 0.3212999701499939 0.086188748478889465 0.5
  endloop
 endfacet
 facet normal -0.96592956100997773 -0.25880510653206157 0
  outer loop
   vertex -1.6108105182647705 -0.43048343062400818 0.5
   vertex -1.6108105182647705 -0.43048343062400818 0
   vertex -1.6105517148971558 -0.43144935369491577 0.5
  endloop
 endfacet
 facet normal -0.96592956100997773 -0.25880510653206157 0
  outer loop
   vertex -1.6105517148971558 -0.43144935369491577 0.5
   vertex -1.6108105182647705 -0.43048343062400818 0
   vertex -1.6105517148971558 -0.43144935369491577 0
  endloop
 endfacet
endsolid
